<?xml version="1.0" encoding="UTF-8"?>
<svg version="1.1" xmlns="http://www.w3.org/2000/svg" width="721" height="208">
<path d="M0 0 C1.48565009 23.35772081 -7.76177516 46.59274582 -22.65234375 64.4140625 C-27.12563688 69.34138371 -31.7717287 74.13061613 -36.61743164 78.69384766 C-37.70990551 79.72593933 -38.75991839 80.80296388 -39.79296875 81.89453125 C-43.55793696 83.78034718 -47.45218189 83.076852 -51.5625 82.75 C-52.42552734 82.69714844 -53.28855469 82.64429688 -54.17773438 82.58984375 C-57.68564022 82.35543823 -60.64688065 82.11770645 -64 81 C-63.86424561 80.16380127 -63.72849121 79.32760254 -63.58862305 78.46606445 C-59.94294689 55.6987166 -57.57828647 33.00013478 -56 10 C-53.10452736 9.66324721 -50.20868928 9.33048266 -47.3125 9 C-46.49587891 8.90460938 -45.67925781 8.80921875 -44.83789062 8.7109375 C-40.87139948 8.26129478 -36.99997537 7.86965457 -33 8 C-33.4684685 20.00248601 -34.17538808 32.52616424 -38 44 C-32.61018248 42.95796861 -28.89591437 41.61054918 -25.6875 37 C-19.86373984 26.97734095 -17.86784427 16.2778173 -16 5 C-15.08476562 4.72285156 -14.16953125 4.44570312 -13.2265625 4.16015625 C-11.44378906 3.61681641 -11.44378906 3.61681641 -9.625 3.0625 C-8.44164062 2.70285156 -7.25828125 2.34320313 -6.0390625 1.97265625 C-4.25593013 1.40196222 -1.88433005 0 0 0 Z " fill="#375B44" transform="translate(224,106)"/>
<path d="M0 0 C5.28 1.65 10.56 3.3 16 5 C16.2475 6.340625 16.495 7.68125 16.75 9.0625 C19.85167361 25.57490428 19.85167361 25.57490428 28 40 C31.30195578 42.17929081 34.21464774 43.08209269 38 44 C37.80664062 43.18660156 37.61328125 42.37320313 37.4140625 41.53515625 C35.85735991 34.68412356 34.62526267 27.9128267 33.8125 20.9375 C33.72887207 20.22408447 33.64524414 19.51066895 33.55908203 18.77563477 C33.16159323 15.16788967 32.90802258 11.62957048 33 8 C35.70860124 8.14176421 38.41680752 8.28828216 41.125 8.4375 C42.26582031 8.49647461 42.26582031 8.49647461 43.4296875 8.55664062 C44.17734375 8.59853516 44.925 8.64042969 45.6953125 8.68359375 C46.7164917 8.73858032 46.7164917 8.73858032 47.75830078 8.79467773 C50.53467813 9.04897237 53.25510225 9.51732399 56 10 C56.06469482 10.9072583 56.12938965 11.8145166 56.19604492 12.74926758 C57.86944156 35.66690139 60.46419105 58.29528023 64 81 C57.82193053 84.08903474 48.67657603 84.16856365 42 83 C37.13635898 80.73184303 33.76258538 76.72690158 30.39208984 72.65771484 C29.09163302 71.10911754 27.68318046 69.65303867 26.26953125 68.20703125 C8.38812997 49.89279726 -0.28355409 25.23631406 0 0 Z " fill="#375B44" transform="translate(16,106)"/>
<path d="M0 0 C0.52698486 0.49459717 1.05396973 0.98919434 1.59692383 1.4987793 C19.13853741 18.14549461 33.57700484 41.49690995 34.28515625 66.3671875 C34.25260417 69.55729167 34.22005208 72.74739583 34.1875 75.9375 C28.9075 74.2875 23.6275 72.6375 18.1875 70.9375 C17.94 69.596875 17.6925 68.25625 17.4375 66.875 C14.35876007 51.59949653 14.35876007 51.59949653 7.1875 37.9375 C7.1875 37.2775 7.1875 36.6175 7.1875 35.9375 C6.56101563 35.73253906 5.93453125 35.52757812 5.2890625 35.31640625 C4.47179687 35.04699219 3.65453125 34.77757812 2.8125 34.5 C2.00039062 34.23316406 1.18828125 33.96632812 0.3515625 33.69140625 C-1.8125 32.9375 -1.8125 32.9375 -3.8125 31.9375 C-3.61914062 32.7625 -3.42578125 33.5875 -3.2265625 34.4375 C-0.75099606 45.41823034 1.41421669 56.63654511 1.1875 67.9375 C-1.8961642 67.79818862 -4.97933417 67.64990719 -8.0625 67.5 C-8.93519531 67.46068359 -9.80789062 67.42136719 -10.70703125 67.38085938 C-11.55136719 67.33896484 -12.39570313 67.29707031 -13.265625 67.25390625 C-14.04067383 67.21724854 -14.81572266 67.18059082 -15.61425781 67.14282227 C-17.7699976 66.94146985 -19.73051475 66.52020703 -21.8125 65.9375 C-21.87719482 65.0302417 -21.94188965 64.1229834 -22.00854492 63.18823242 C-23.68194156 40.27059861 -26.27669105 17.64221977 -29.8125 -5.0625 C-25.80922509 -5.8946654 -21.89092108 -6.41159653 -17.8125 -6.75 C-16.61625 -6.85699219 -15.42 -6.96398437 -14.1875 -7.07421875 C-7.83556776 -7.05216343 -4.46010417 -4.22835436 0 0 Z " fill="#375B44" transform="translate(189.8125,26.0625)"/>
<path d="M0 0 C-0.13575439 0.9072583 -0.27150879 1.8145166 -0.41137695 2.74926758 C-3.7743473 25.45607755 -6.30111991 48.10848998 -8 71 C-10.88167681 71.80652508 -13.56031547 72.17515006 -16.546875 72.31640625 C-17.39121094 72.35830078 -18.23554687 72.40019531 -19.10546875 72.44335938 C-19.97816406 72.48267578 -20.85085937 72.52199219 -21.75 72.5625 C-22.63816406 72.60568359 -23.52632812 72.64886719 -24.44140625 72.69335938 C-26.62745963 72.79913615 -28.81362089 72.90122546 -31 73 C-30.49128949 61.10669923 -29.78688477 48.36065432 -26 37 C-33.11867999 39.40453191 -37.41562385 42.31354907 -41 49 C-44.66974912 57.35685443 -45.98631698 65.98355627 -47 75 C-52.62338249 77.14710968 -58.27789404 79.13236819 -64 81 C-65.47869932 54.65724536 -53.38285285 31.23365446 -36.625 11.8125 C-35.09842617 10.19396389 -33.55636092 8.5899143 -32 7 C-31.19175781 6.1234375 -30.38351563 5.246875 -29.55078125 4.34375 C-20.30850428 -4.60841065 -11.69696169 -2.36751124 0 0 Z " fill="#375B44" transform="translate(80,21)"/>
<path d="M0 0 C18.315 0.495 18.315 0.495 37 1 C36.80664062 3.63484375 36.61328125 6.2696875 36.4140625 8.984375 C34.92261858 29.32151531 33.4420023 49.65928513 32 70 C21.605 70.495 21.605 70.495 11 71 C7.73870654 55.65273664 5.01807316 40.32256419 2.6875 24.8125 C2.55285339 23.92570557 2.41820679 23.03891113 2.27947998 22.12524414 C1.89301979 19.56996159 1.51348294 17.01375965 1.13671875 14.45703125 C1.02133255 13.69227982 0.90594635 12.92752838 0.7870636 12.13960266 C0.18737422 7.99135251 0 4.23049282 0 0 Z " fill="#375B44" transform="translate(83,116)"/>
<path d="M0 0 C-0.5106155 11.24394046 -1.95072716 22.15895863 -3.8125 33.25 C-4.08230614 34.88759546 -4.35199941 36.52520952 -4.62158203 38.1628418 C-6.4514097 49.18118335 -8.53643472 60.10346128 -11 71 C-17.93 70.67 -24.86 70.34 -32 70 C-32.41003131 63.38792285 -32.81930748 56.77580683 -33.22680664 50.16357422 C-33.36506037 47.92363952 -33.50371867 45.68372974 -33.64282227 43.44384766 C-34.52088599 29.29973095 -35.33166024 15.1556553 -36 1 C-31.19450973 0.85721003 -26.38900832 0.71480303 -21.58349609 0.57275391 C-19.94807629 0.52435717 -18.3126596 0.47585503 -16.67724609 0.42724609 C-14.32910964 0.35747127 -11.98096232 0.28807318 -9.6328125 0.21875 C-8.89942657 0.19687622 -8.16604065 0.17500244 -7.41043091 0.15246582 C-2.22774341 0 -2.22774341 0 0 0 Z " fill="#375B44" transform="translate(158,116)"/>
<path d="M0 0 C6.6 0 13.2 0 20 0 C21.40912736 6.68206326 22.50055571 13.28939677 23.25390625 20.07421875 C23.35968491 21.00112015 23.46546356 21.92802155 23.57444763 22.88301086 C23.79576076 24.83152262 24.0149781 26.78027348 24.23217773 28.72924805 C24.55979626 31.66328623 24.89559871 34.59630276 25.23242188 37.52929688 C25.44840909 39.44004857 25.6639189 41.3508543 25.87890625 43.26171875 C26.0258065 44.54220345 26.0258065 44.54220345 26.17567444 45.84855652 C27.02823996 53.57036948 27.48146348 61.22195216 28 69 C16.45 69 4.9 69 -7 69 C-7 56.62394866 -7 56.62394866 -6.46508789 51.96533203 C-6.34819107 50.92120148 -6.23129425 49.87707092 -6.1108551 48.80130005 C-5.98274948 47.71444916 -5.85464386 46.62759827 -5.72265625 45.5078125 C-5.59185165 44.35884491 -5.46104706 43.20987732 -5.32627869 42.02609253 C-5.05089796 39.61732284 -4.77258395 37.20888684 -4.49145508 34.80078125 C-4.06136818 31.11530128 -3.64026876 27.42887865 -3.22070312 23.7421875 C-2.95104019 21.39316949 -2.68087558 19.044209 -2.41015625 16.6953125 C-2.28407486 15.59631622 -2.15799347 14.49731995 -2.02809143 13.36502075 C-1.84801796 11.82719437 -1.84801796 11.82719437 -1.66430664 10.25830078 C-1.5599379 9.36104279 -1.45556915 8.46378479 -1.34803772 7.53933716 C-1.00137268 5.01001532 -0.50067822 2.50339109 0 0 Z " fill="#375B44" transform="translate(111,22)"/>
<path d="M0 0 C0.66 3.96 1.32 7.92 2 12 C2.33 8.04 2.66 4.08 3 0 C14.88 0 26.76 0 39 0 C39.66 3.3 40.32 6.6 41 10 C41.33 6.7 41.66 3.4 42 0 C48.27 0.33 54.54 0.66 61 1 C60.34 8.26 59.68 15.52 59 23 C54.28399503 23.78600083 50.35630958 24.11717483 45.6328125 24.09765625 C44.61343094 24.09553383 44.61343094 24.09553383 43.57345581 24.09336853 C41.42392388 24.08781518 39.27449992 24.07527169 37.125 24.0625 C35.65885568 24.05747896 34.19270971 24.05291711 32.7265625 24.04882812 C29.15100717 24.03786111 25.57551414 24.02062919 22 24 C21.505 22.02 21.505 22.02 21 20 C20.67 21.32 20.34 22.64 20 24 C15.37353911 24.02475469 10.74711694 24.04288594 6.12060547 24.05493164 C4.54735645 24.05995437 2.97411208 24.06677375 1.40087891 24.07543945 C-0.86296743 24.08759529 -3.12675193 24.09324896 -5.390625 24.09765625 C-6.09181458 24.10281754 -6.79300415 24.10797882 -7.51544189 24.11329651 C-14.14344978 24.11405458 -14.14344978 24.11405458 -17 23 C-20.14264181 16.71471637 -19.11548358 7.86485718 -19 1 C-12.62694402 0.25492456 -6.41688675 -0.10349817 0 0 Z " fill="#375B44" transform="translate(100,92)"/>
<path d="M0 0 C1.7687398 -0.13513292 3.54043055 -0.23205586 5.3125 -0.3125 C6.29863281 -0.37050781 7.28476562 -0.42851563 8.30078125 -0.48828125 C11 0 11 0 12.71875 2.0625 C14.18829216 5.43169422 15.22592888 8.76463414 16.1875 12.3125 C16.53167969 13.56675781 16.87585938 14.82101563 17.23046875 16.11328125 C17.48441406 17.06589844 17.73835938 18.01851562 18 19 C18.32613281 18.21496094 18.65226562 17.42992187 18.98828125 16.62109375 C21.29789053 11.06849327 23.61590894 5.52105299 26 0 C29.3 0 32.6 0 36 0 C38.31 6.6 40.62 13.2 43 20 C44.89295571 13.79466486 44.89295571 13.79466486 46.76904297 7.58422852 C47.00768066 6.81522217 47.24631836 6.04621582 47.4921875 5.25390625 C47.73308105 4.46314697 47.97397461 3.6723877 48.22216797 2.85766602 C49 1 49 1 51 0 C52.70702735 -0.06996014 54.41668003 -0.08440154 56.125 -0.0625 C57.03507813 -0.05347656 57.94515625 -0.04445313 58.8828125 -0.03515625 C59.93082031 -0.01775391 59.93082031 -0.01775391 61 0 C59.53996129 7.30783773 57.36118666 14.208735 54.9375 21.25 C54.21465039 23.35841797 53.4944959 25.46776231 52.77734375 27.578125 C52.46015381 28.50012695 52.14296387 29.42212891 51.81616211 30.37207031 C50.83788453 33.36187715 50.83788453 33.36187715 50 38 C45.71 38 41.42 38 37 38 C32.71428571 27.42857143 32.71428571 27.42857143 31 22 C28.95939871 25.06090193 28.04353582 27.6344687 26.9375 31.125 C25.10369069 36.89630931 25.10369069 36.89630931 24 38 C21.98035801 38.07244053 19.95832876 38.08377188 17.9375 38.0625 C16.83277344 38.05347656 15.72804688 38.04445312 14.58984375 38.03515625 C13.73519531 38.02355469 12.88054687 38.01195312 12 38 C11.63648438 36.97003906 11.27296875 35.94007813 10.8984375 34.87890625 C10.65818848 34.19852295 10.41793945 33.51813965 10.17041016 32.81713867 C9.63541486 31.30066184 9.1012493 29.78389206 8.56787109 28.2668457 C7.15292519 24.24622761 5.72464282 20.23141753 4.265625 16.2265625 C3.99057129 15.46529053 3.71551758 14.70401855 3.43212891 13.91967773 C2.9030272 12.45640584 2.3690161 10.99489776 1.82958984 9.53540039 C0.59840541 6.11310402 0 3.68840045 0 0 Z " fill="#375B44" transform="translate(493,124)"/>
<path d="M0 0 C3.96 0 7.92 0 12 0 C12.42152344 1.21558594 12.84304688 2.43117188 13.27734375 3.68359375 C13.83057808 5.26828192 14.38397172 6.85291448 14.9375 8.4375 C15.21529297 9.23994141 15.49308594 10.04238281 15.77929688 10.86914062 C16.04677734 11.63291016 16.31425781 12.39667969 16.58984375 13.18359375 C16.83597412 13.89056396 17.08210449 14.59753418 17.33569336 15.32592773 C17.87467975 17.00682632 17.87467975 17.00682632 19 18 C19.63228516 16.17662109 19.63228516 16.17662109 20.27734375 14.31640625 C20.83057808 12.73171808 21.38397172 11.14708552 21.9375 9.5625 C22.21529297 8.76005859 22.49308594 7.95761719 22.77929688 7.13085938 C23.04677734 6.36708984 23.31425781 5.60332031 23.58984375 4.81640625 C23.83597412 4.10943604 24.08210449 3.40246582 24.33569336 2.67407227 C25 1 25 1 26 0 C27.68608966 -0.07205511 29.37500659 -0.08386068 31.0625 -0.0625 C31.98160156 -0.05347656 32.90070313 -0.04445313 33.84765625 -0.03515625 C34.55792969 -0.02355469 35.26820313 -0.01195313 36 0 C38.5390378 6.60149829 40.79377637 13.28053718 43 20 C43.20681396 19.42967041 43.41362793 18.85934082 43.62670898 18.27172852 C44.56075855 15.70092825 45.4990701 13.13170435 46.4375 10.5625 C46.76298828 9.66466797 47.08847656 8.76683594 47.42382812 7.84179688 C47.73642578 6.98779297 48.04902344 6.13378906 48.37109375 5.25390625 C48.65911865 4.46314697 48.94714355 3.6723877 49.24389648 2.85766602 C50 1 50 1 51 0 C52.68608966 -0.07205511 54.37500659 -0.08386068 56.0625 -0.0625 C56.98160156 -0.05347656 57.90070313 -0.04445313 58.84765625 -0.03515625 C59.55792969 -0.02355469 60.26820313 -0.01195313 61 0 C59.97504128 6.2171838 58.39779987 11.8928845 56.15234375 17.7734375 C53.78175577 24.41108383 51.93776641 31.22575923 50 38 C45.71 38 41.42 38 37 38 C34.27600901 32.16287645 32.58960332 26.23440168 31 20 C30.57847656 21.21558594 30.15695312 22.43117187 29.72265625 23.68359375 C29.16942192 25.26828192 28.61602828 26.85291448 28.0625 28.4375 C27.78470703 29.23994141 27.50691406 30.04238281 27.22070312 30.86914062 C26.95322266 31.63291016 26.68574219 32.39667969 26.41015625 33.18359375 C26.16402588 33.89056396 25.91789551 34.59753418 25.66430664 35.32592773 C25 37 25 37 24 38 C21.98035801 38.07244053 19.95832876 38.08377188 17.9375 38.0625 C16.83277344 38.05347656 15.72804688 38.04445312 14.58984375 38.03515625 C13.73519531 38.02355469 12.88054687 38.01195312 12 38 C10.44311485 33.71636684 8.89519405 29.42963606 7.35522461 25.13989258 C6.83093972 23.6832945 6.3042844 22.22754723 5.77514648 20.77270508 C5.01169724 18.67232021 4.25703775 16.56894695 3.50390625 14.46484375 C3.26845596 13.82288559 3.03300568 13.18092743 2.79042053 12.51951599 C1.29837909 8.31681258 0.4987065 4.40400015 0 0 Z " fill="#375B44" transform="translate(265,124)"/>
<path d="M0 0 C1.75183594 0.00386719 1.75183594 0.00386719 3.5390625 0.0078125 C4.70179687 0.00523438 5.86453125 0.00265625 7.0625 0 C10.1640625 0.1328125 10.1640625 0.1328125 13.1640625 1.1328125 C13.15882568 2.22819336 13.15358887 3.32357422 13.14819336 4.45214844 C13.05266005 26.3736467 13.14110126 48.23048161 14.1640625 70.1328125 C7.5640625 70.4628125 0.9640625 70.7928125 -5.8359375 71.1328125 C-5.88597993 64.05681345 -5.92195614 56.98092107 -5.94580078 49.90478516 C-5.95575825 47.50567832 -5.96932908 45.1065833 -5.98681641 42.70751953 C-6.18510732 14.77182882 -6.18510732 14.77182882 -3.8359375 1.1328125 C-2.8359375 0.1328125 -2.8359375 0.1328125 0 0 Z " fill="#375B44" transform="translate(85.8359375,20.8671875)"/>
<path d="M0 0 C4.95 0 9.9 0 15 0 C17.66855909 23.83567343 18.63712967 47.05697865 17 71 C10.73 70.67 4.46 70.34 -2 70 C-1.84660156 67.9375 -1.69320312 65.875 -1.53515625 63.75 C-0.69860308 51.18567652 -0.63979015 38.58657574 -0.4375 26 C-0.39421006 23.4713485 -0.35059282 20.94270258 -0.30664062 18.4140625 C-0.20065516 12.27609947 -0.09909376 6.138078 0 0 Z " fill="#375B44" transform="translate(144,21)"/>
<path d="M0 0 C3.279375 -0.061875 6.55875 -0.12375 9.9375 -0.1875 C11.45911743 -0.22846802 11.45911743 -0.22846802 13.01147461 -0.27026367 C20.43072531 -0.33722052 27.30007049 0.71349658 33.375 5.25 C37.27720221 9.33802136 39.11346808 13.36616662 39.375 19 C39.13742505 23.92255304 37.84183282 28.02173512 34.41796875 31.69921875 C29.40992719 36.20536508 25.10694683 38.2685235 18.26171875 38.1953125 C16.81865356 38.18781982 16.81865356 38.18781982 15.34643555 38.18017578 C14.13898682 38.16196777 12.93153809 38.14375977 11.6875 38.125 C7.830625 38.08375 3.97375 38.0425 0 38 C0 25.46 0 12.92 0 0 Z M12 10 C12 15.94 12 21.88 12 28 C20.14535771 28.48881091 20.14535771 28.48881091 26 25 C27.61251109 21.77497783 27.5801337 18.48770858 27 15 C24.75945177 12.08728731 23.04427629 11.18653485 19.44140625 10.54296875 C16.96829836 10.27987217 14.48353339 10.13245511 12 10 Z " fill="#375B44" transform="translate(439,124)"/>
<path d="M0 0 C3.114375 -0.061875 6.22875 -0.12375 9.4375 -0.1875 C10.39970459 -0.21481201 11.36190918 -0.24212402 12.35327148 -0.27026367 C21.62347008 -0.35822699 28.61899117 1.74305922 35.40234375 8.17578125 C38.49198695 11.70356456 38.89918912 14.8910803 39.3125 19.4375 C38.70718709 26.33806721 36.1409316 30.37426566 31.01171875 34.73828125 C24.72031493 38.684152 18.29118122 38.23884486 11.125 38.125 C7.45375 38.08375 3.7825 38.0425 0 38 C0 25.46 0 12.92 0 0 Z M11 10 C11 15.94 11 21.88 11 28 C17.77884441 28.45694687 17.77884441 28.45694687 24.125 26.5625 C26.51624116 23.29447042 26.6734217 21.10572368 26.3984375 17.125 C26.08077168 14.85650504 26.08077168 14.85650504 24.6875 12.5 C20.31694106 10.06061827 15.96424178 10.23639247 11 10 Z " fill="#375B44" transform="translate(573,124)"/>
<path d="M0 0 C0.82628906 -0.020625 1.65257812 -0.04125 2.50390625 -0.0625 C9.83148915 -0.10836906 16.26854943 0.97379119 22 5.75 C25.25458654 9.81823318 25.35124691 13.15691987 25 18.25 C23.38223185 21.56257288 21.20823647 24.31187024 19 27.25 C19.433125 27.87648437 19.86625 28.50296875 20.3125 29.1484375 C20.869375 29.96570313 21.42625 30.78296875 22 31.625 C22.556875 32.43710938 23.11375 33.24921875 23.6875 34.0859375 C25 36.25 25 36.25 25 38.25 C20.90020498 38.72764602 17.08075262 38.95537977 13 38.25 C10.88945523 36.3669391 9.68565353 34.5197049 8.24609375 32.09765625 C7.06714851 29.95141373 7.06714851 29.95141373 4.125 29.25 C3.42375 29.25 2.7225 29.25 2 29.25 C2 32.22 2 35.19 2 38.25 C-1.96 38.25 -5.92 38.25 -10 38.25 C-10.02464928 32.99894558 -10.04283568 27.74792455 -10.05493164 22.49682617 C-10.05997218 20.70905979 -10.06680454 18.92129755 -10.07543945 17.13354492 C-10.0875173 14.56948832 -10.09323094 12.00548603 -10.09765625 9.44140625 C-10.10281754 8.6372377 -10.10797882 7.83306915 -10.11329651 7.00453186 C-10.11349215 5.08598285 -10.06201983 3.16754632 -10 1.25 C-7.82869641 -0.92130359 -3.00418087 0.01807026 0 0 Z M2 10.25 C2 13.22 2 16.19 2 19.25 C7.28513335 19.71312039 7.28513335 19.71312039 12.0625 18 C13.18264074 16.27671219 13.18264074 16.27671219 12.875 14.1875 C12.04747907 11.8988757 12.04747907 11.8988757 9 10.25 C6.66800612 10.17094936 4.33167378 10.16201231 2 10.25 Z " fill="#375B44" transform="translate(380,123.75)"/>
<path d="M0 0 C4.91160544 2.93005908 8.96693184 6.94167618 11.54296875 12.09375 C12.22930806 18.22736456 12.76279777 24.3078324 9.16796875 29.59375 C4.90793086 34.32489797 -0.53248138 37.41911663 -6.8203125 38.5 C-13.03915199 38.75777573 -18.73218987 37.52357903 -23.44140625 33.32421875 C-27.46582084 28.97552282 -30.34417293 25.11903007 -30.515625 19.00390625 C-30.20112132 13.06891746 -28.29847572 8.62153255 -24.45703125 4.09375 C-17.47747232 -1.35030596 -8.52194848 -3.1432306 0 0 Z M-17.45703125 13.09375 C-19.20404395 16.58777539 -18.31390436 20.38063318 -17.45703125 24.09375 C-16.03420485 26.34838249 -16.03420485 26.34838249 -13.45703125 27.09375 C-8.50607266 27.72244315 -6.59016596 27.87278011 -2.45703125 25.03125 C0.03277073 21.37435335 0.0960694 19.43954086 -0.45703125 15.09375 C-1.31247533 12.45613076 -1.95950831 11.44912353 -4.20703125 9.84375 C-9.94212512 7.93205204 -13.17094753 8.93012582 -17.45703125 13.09375 Z " fill="#375B44" transform="translate(355.45703125,124.90625)"/>
<path d="M0 0 C1.30066406 -0.00128906 2.60132813 -0.00257812 3.94140625 -0.00390625 C4.96258545 -0.00076416 4.96258545 -0.00076416 6.00439453 0.00244141 C8.08503515 0.0077901 10.16545989 0.0024957 12.24609375 -0.00390625 C14.19708984 -0.00197266 14.19708984 -0.00197266 16.1875 0 C17.39083984 0.00112793 18.59417969 0.00225586 19.83398438 0.00341797 C22.59375 0.1328125 22.59375 0.1328125 23.59375 1.1328125 C23.59375 4.1028125 23.59375 7.0728125 23.59375 10.1328125 C17.65375 10.4628125 11.71375 10.7928125 5.59375 11.1328125 C5.59375 11.7928125 5.59375 12.4528125 5.59375 13.1328125 C7.20056641 13.22369141 7.20056641 13.22369141 8.83984375 13.31640625 C10.23699391 13.40079787 11.63412857 13.48544656 13.03125 13.5703125 C13.73830078 13.60962891 14.44535156 13.64894531 15.17382812 13.68945312 C20.48046875 14.01953125 20.48046875 14.01953125 21.59375 15.1328125 C21.7265625 16.9453125 21.7265625 16.9453125 21.71875 19.1328125 C21.72261719 20.215625 21.72261719 20.215625 21.7265625 21.3203125 C21.59375 23.1328125 21.59375 23.1328125 20.59375 24.1328125 C18.06778741 24.36934773 15.56267793 24.55454942 13.03125 24.6953125 C11.96487305 24.76008789 11.96487305 24.76008789 10.87695312 24.82617188 C9.11613088 24.93253027 7.3549668 25.03320096 5.59375 25.1328125 C5.59375 26.1228125 5.59375 27.1128125 5.59375 28.1328125 C6.88152344 28.12121094 8.16929687 28.10960937 9.49609375 28.09765625 C11.17447772 28.0882798 12.85286326 28.07917945 14.53125 28.0703125 C15.80645508 28.05774414 15.80645508 28.05774414 17.10742188 28.04492188 C17.91630859 28.04169922 18.72519531 28.03847656 19.55859375 28.03515625 C20.3074585 28.02991943 21.05632324 28.02468262 21.82788086 28.01928711 C23.59375 28.1328125 23.59375 28.1328125 24.59375 29.1328125 C24.59375 32.1028125 24.59375 35.0728125 24.59375 38.1328125 C14.03375 38.1328125 3.47375 38.1328125 -7.40625 38.1328125 C-7.42915839 32.88170054 -7.44908563 27.63076072 -7.46118164 22.37963867 C-7.46622218 20.59187229 -7.47305454 18.80411005 -7.48168945 17.01635742 C-7.4937673 14.45230082 -7.49948094 11.88829853 -7.50390625 9.32421875 C-7.50906754 8.5200502 -7.51422882 7.71588165 -7.51954651 6.88734436 C-7.51974215 4.96879535 -7.46826983 3.05035882 -7.40625 1.1328125 C-5.54910943 -0.72432807 -2.48117951 0.00232569 0 0 Z " fill="#375B44" transform="translate(621.40625,123.8671875)"/>
<path d="M0 0 C3.96 0 7.92 0 12 0 C12 9.24 12 18.48 12 28 C17.61 28 23.22 28 29 28 C30 35 30 35 29 38 C19.43 38 9.86 38 0 38 C0 25.46 0 12.92 0 0 Z " fill="#375B44" transform="translate(408,124)"/>
<path d="M0 0 C3.87865306 0.68041044 7.46061312 1.76701247 11.17578125 3.06640625 C12.33271484 3.46923828 13.48964844 3.87207031 14.68164062 4.28710938 C15.87982422 4.70798828 17.07800781 5.12886719 18.3125 5.5625 C19.53001953 5.98724609 20.74753906 6.41199219 22.00195312 6.84960938 C25.00232979 7.89679966 28.00130222 8.94801176 31 10 C31 13.96 31 17.92 31 22 C21.16309085 26.73628959 10.59267556 30.35183111 0 33 C0 29.7 0 26.4 0 23 C0.81984375 22.66226563 1.6396875 22.32453125 2.484375 21.9765625 C3.56203125 21.53054687 4.6396875 21.08453125 5.75 20.625 C6.81734375 20.18414062 7.8846875 19.74328125 8.984375 19.2890625 C11.35928111 18.27388243 13.68988839 17.15505581 16 16 C10.72 14.02 5.44 12.04 0 10 C0 6.7 0 3.4 0 0 Z " fill="#375B44" transform="translate(679,127)"/>
<path d="M0 0 C0 3.3 0 6.6 0 10 C-5.28 11.98 -10.56 13.96 -16 16 C-14.1025 16.78375 -12.205 17.5675 -10.25 18.375 C-6.75510363 19.81854415 -3.38533492 21.30733254 0 23 C0 26.3 0 29.6 0 33 C-3.77326562 31.75877413 -7.54518307 30.51354201 -11.31591797 29.26464844 C-12.5977836 28.84070398 -13.88000685 28.41783921 -15.16259766 27.99609375 C-17.01038681 27.38828723 -18.85677335 26.77622187 -20.703125 26.1640625 C-21.81333008 25.79748535 -22.92353516 25.4309082 -24.06738281 25.05322266 C-27 24 -27 24 -31 22 C-31 18.04 -31 14.08 -31 10 C-29.14632812 9.36191406 -27.29265625 8.72382813 -25.3828125 8.06640625 C-22.96351677 7.231843 -20.54424729 6.39720365 -18.125 5.5625 C-16.29001953 4.93118164 -16.29001953 4.93118164 -14.41796875 4.28710938 C-13.25136719 3.88427734 -12.08476562 3.48144531 -10.8828125 3.06640625 C-9.80402832 2.69459229 -8.72524414 2.32277832 -7.61376953 1.93969727 C-2.21849831 0 -2.21849831 0 0 0 Z " fill="#375B44" transform="translate(258,127)"/>
<path d="M0 0 C4.29 0 8.58 0 13 0 C9.44493525 10.25457887 5.85673643 20.49566735 2.125 30.6875 C1.827146 31.50645752 1.52929199 32.32541504 1.22241211 33.16918945 C-0.88085606 38.88085606 -0.88085606 38.88085606 -2 40 C-4.01964199 40.07244053 -6.04167124 40.08377188 -8.0625 40.0625 C-9.16722656 40.05347656 -10.27195312 40.04445312 -11.41015625 40.03515625 C-12.69212891 40.01775391 -12.69212891 40.01775391 -14 40 C-9.3680203 26.65430754 -4.71847059 13.31538103 0 0 Z " fill="#375B44" transform="translate(667,123)"/>
<path d="M0 0 C0 7.26 0 14.52 0 22 C-7.59 21.34 -15.18 20.68 -23 20 C-23 14.06 -23 8.12 -23 2 C-19.35421542 1.66612602 -15.70837585 1.33287454 -12.0625 1 C-11.02158203 0.90460938 -9.98066406 0.80921875 -8.90820312 0.7109375 C-7.42416992 0.57558594 -7.42416992 0.57558594 -5.91015625 0.4375 C-4.99371338 0.35371094 -4.07727051 0.26992187 -3.13305664 0.18359375 C-1 0 -1 0 0 0 Z " fill="#375B44" transform="translate(72,93)"/>
<path d="M0 0 C11.385 0.99 11.385 0.99 23 2 C23 7.94 23 13.88 23 20 C11.615 20.99 11.615 20.99 0 22 C0 14.74 0 7.48 0 0 Z " fill="#375B44" transform="translate(168,93)"/>
<path d="M0 0 C3.63 0 7.26 0 11 0 C11 12.54 11 25.08 11 38 C7.37 38 3.74 38 0 38 C0 25.46 0 12.92 0 0 Z " fill="#375B44" transform="translate(556,124)"/>
<path d="M0 0 C6.93 0 13.86 0 21 0 C20.67 6.6 20.34 13.2 20 20 C8.88392857 20.13392857 8.88392857 20.13392857 4 19 C3.51622009 17.14703165 3.03821364 15.29255559 2.5625 13.4375 C2.29566406 12.40496094 2.02882813 11.37242187 1.75390625 10.30859375 C0.97952106 6.91012611 0.49293518 3.45054628 0 0 Z " fill="#375B44" transform="translate(94,188)"/>
<path d="M0 0 C4.62 0 9.24 0 14 0 C15.75582841 7.02331365 16.50170023 13.77465331 17 21 C10.4 21 3.8 21 -3 21 C-2.690625 18.091875 -2.38125 15.18375 -2.0625 12.1875 C-1.91953491 10.81887817 -1.91953491 10.81887817 -1.77368164 9.42260742 C-1.69496826 8.69920166 -1.61625488 7.9757959 -1.53515625 7.23046875 C-1.456604 6.49207764 -1.37805176 5.75368652 -1.29711914 4.99291992 C-1 3 -1 3 0 0 Z " fill="#375B44" transform="translate(114,0)"/>
<path d="M0 0 C6.6 0.33 13.2 0.66 20 1 C18.99788584 14.52854123 18.99788584 14.52854123 17 19 C11.79180211 21.99471379 7.26023647 21 1 21 C0.67 14.07 0.34 7.14 0 0 Z " fill="#375B44" transform="translate(126,187)"/>
<path d="M0 0 C-0.33 5.94 -0.66 11.88 -1 18 C-6.28 18 -11.56 18 -17 18 C-16.31640625 9.796875 -16.31640625 9.796875 -16 7 C-15.92136719 6.2575 -15.84273438 5.515 -15.76171875 4.75 C-15 3 -15 3 -12.890625 1.953125 C-12.01921875 1.72109375 -11.1478125 1.4890625 -10.25 1.25 C-9.38890625 1.00765625 -8.5278125 0.7653125 -7.640625 0.515625 C-5 0 -5 0 0 0 Z " fill="#375B44" transform="translate(100,2)"/>
<path d="M0 0 C11.27321912 2.07664563 11.27321912 2.07664563 14 4 C14.828125 6.2421875 14.828125 6.2421875 15.25 8.875 C15.39953125 9.73867187 15.5490625 10.60234375 15.703125 11.4921875 C16 14 16 14 16 18 C11.05 18 6.1 18 1 18 C0.67 12.06 0.34 6.12 0 0 Z " fill="#375B44" transform="translate(142,2)"/>
<path d="M0 0 C7.73114766 3.15978086 15.06129508 6.28168066 22 11 C21.67 11.66 21.34 12.32 21 13 C15.06 13.33 9.12 13.66 3 14 C0 3.375 0 3.375 0 0 Z " fill="#375B44" transform="translate(157,6)"/>
<path d="M0 0 C2.60444348 -0.05394705 5.20776998 -0.09364469 7.8125 -0.125 C8.55048828 -0.14175781 9.28847656 -0.15851563 10.04882812 -0.17578125 C13.91246426 -0.21074628 15.70903668 -0.19397555 19 2 C11.85752853 6.64757417 5.30707027 10.74723518 -3 13 C-2.01 8.71 -1.02 4.42 0 0 Z " fill="#375B44" transform="translate(160,189)"/>
<path d="M0 0 C0.74958984 0.00902344 1.49917969 0.01804688 2.27148438 0.02734375 C4.11862654 0.05087422 5.96560412 0.08674439 7.8125 0.125 C9.07888795 4.45439946 10.15888676 8.65864288 10.8125 13.125 C2.93034529 10.31741834 -4.05986664 6.48485821 -11.1875 2.125 C-7.39586973 -0.40275351 -4.37875969 -0.09943035 0 0 Z " fill="#375B44" transform="translate(72.1875,188.875)"/>
<path d="M0 0 C-0.99 4.29 -1.98 8.58 -3 13 C-8.94 12.67 -14.88 12.34 -21 12 C-19.66099451 7.98298353 -17.89067282 7.49314819 -14.25 5.4375 C-13.20328125 4.83808594 -12.1565625 4.23867187 -11.078125 3.62109375 C-4.20240964 0 -4.20240964 0 0 0 Z " fill="#375B44" transform="translate(83,7)"/>
<path d="M0 0 C0 3.96 0 7.92 0 12 C-5.66104589 11.50341703 -9.87674471 10.45489316 -15 8 C-15 6.68 -15 5.36 -15 4 C-13.25307205 3.32532438 -11.50231475 2.66055844 -9.75 2 C-8.77546875 1.62875 -7.8009375 1.2575 -6.796875 0.875 C-4 0 -4 0 0 0 Z " fill="#375B44" transform="translate(33,98)"/>
<path d="M0 0 C10.71428571 1.85714286 10.71428571 1.85714286 15 5 C14.30859375 6.890625 14.30859375 6.890625 13 9 C10.72265625 10.046875 10.72265625 10.046875 8.0625 10.75 C7.18722656 10.99234375 6.31195313 11.2346875 5.41015625 11.484375 C3 12 3 12 0 12 C0 8.04 0 4.08 0 0 Z " fill="#375B44" transform="translate(208,98)"/>
</svg>
